M48
; DRILL file {KiCad 7.0.11+dfsg-1build4} date Mon 11 Aug 2025 06:09:32 PM CEST
; FORMAT={-:-/ absolute / inch / decimal}
; #@! TF.CreationDate,2025-08-11T18:09:32+02:00
; #@! TF.GenerationSoftware,Kicad,Pcbnew,7.0.11+dfsg-1build4
; #@! TF.FileFunction,NonPlated,1,2,NPTH
FMAT,2
INCH
; #@! TA.AperFunction,NonPlated,NPTH,ComponentDrill
T1C0.0197
; #@! TA.AperFunction,NonPlated,NPTH,ComponentDrill
T2C0.0394
%
G90
G05
T1
X4.8524Y-6.6378
X4.8524Y-6.6713
X4.8524Y-6.7047
X4.8524Y-7.5827
X4.8524Y-7.6161
X4.8524Y-7.6496
X4.9272Y-3.1339
X4.9272Y-3.1673
X4.9272Y-3.2008
X4.9272Y-4.9449
X4.9272Y-4.9783
X4.9272Y-5.0118
X4.9508Y-6.6378
X4.9508Y-6.6713
X4.9508Y-6.7047
X4.9508Y-7.5827
X4.9508Y-7.6161
X4.9508Y-7.6496
X5.0256Y-3.1339
X5.0256Y-3.1673
X5.0256Y-3.2008
X5.0256Y-4.9449
X5.0256Y-4.9783
X5.0256Y-5.0118
X5.7303Y-2.2126
X5.7303Y-2.311
X5.7303Y-4.0236
X5.7303Y-4.122
X5.7303Y-5.8346
X5.7303Y-5.9331
X5.7638Y-2.2126
X5.7638Y-2.311
X5.7638Y-4.0236
X5.7638Y-4.122
X5.7638Y-5.8346
X5.7638Y-5.9331
X5.7972Y-2.2126
X5.7972Y-2.311
X5.7972Y-4.0236
X5.7972Y-4.122
X5.7972Y-5.8346
X5.7972Y-5.9331
X6.502Y-3.1339
X6.502Y-3.1673
X6.502Y-3.2008
X6.502Y-4.9449
X6.502Y-4.9783
X6.502Y-5.0118
X6.5177Y-6.1299
X6.5177Y-6.2283
X6.5177Y-8.0591
X6.5177Y-8.1575
X6.5512Y-6.1299
X6.5512Y-6.2283
X6.5512Y-8.0591
X6.5512Y-8.1575
X6.5846Y-6.1299
X6.5846Y-6.2283
X6.5846Y-8.0591
X6.5846Y-8.1575
X6.6004Y-3.1339
X6.6004Y-3.1673
X6.6004Y-3.2008
X6.6004Y-4.9449
X6.6004Y-4.9783
X6.6004Y-5.0118
X7.3051Y-2.2126
X7.3051Y-2.311
X7.3051Y-4.0236
X7.3051Y-4.122
X7.3051Y-5.8346
X7.3051Y-5.9331
X7.3386Y-2.2126
X7.3386Y-2.311
X7.3386Y-4.0236
X7.3386Y-4.122
X7.3386Y-5.8346
X7.3386Y-5.9331
X7.372Y-2.2126
X7.372Y-2.311
X7.372Y-4.0236
X7.372Y-4.122
X7.372Y-5.8346
X7.372Y-5.9331
X8.0768Y-3.1339
X8.0768Y-3.1673
X8.0768Y-3.2008
X8.0768Y-4.9449
X8.0768Y-4.9783
X8.0768Y-5.0118
X8.1516Y-6.6378
X8.1516Y-6.6713
X8.1516Y-6.7047
X8.1516Y-7.5827
X8.1516Y-7.6161
X8.1516Y-7.6496
X8.1752Y-3.1339
X8.1752Y-3.1673
X8.1752Y-3.2008
X8.1752Y-4.9449
X8.1752Y-4.9783
X8.1752Y-5.0118
X8.25Y-6.6378
X8.25Y-6.6713
X8.25Y-6.7047
X8.25Y-7.5827
X8.25Y-7.6161
X8.25Y-7.6496
X8.4646Y-3.1142
X8.4646Y-3.1476
X8.4646Y-3.1811
X8.4646Y-4.5315
X8.4646Y-4.565
X8.4646Y-4.5984
X8.4646Y-5.9488
X8.4646Y-5.9823
X8.4646Y-6.0157
X8.4646Y-7.3661
X8.4646Y-7.3996
X8.4646Y-7.4331
X8.563Y-3.1142
X8.563Y-3.1476
X8.563Y-3.1811
X8.563Y-4.5315
X8.563Y-4.565
X8.563Y-4.5984
X8.563Y-5.9488
X8.563Y-5.9823
X8.563Y-6.0157
X8.563Y-7.3661
X8.563Y-7.3996
X8.563Y-7.4331
X9.0709Y-2.3898
X9.0709Y-2.4882
X9.0709Y-3.8071
X9.0709Y-3.9055
X9.0709Y-5.2244
X9.0709Y-5.3228
X9.0709Y-6.6417
X9.0709Y-6.7402
X9.0709Y-8.0591
X9.0709Y-8.1575
X9.1043Y-2.3898
X9.1043Y-2.4882
X9.1043Y-3.8071
X9.1043Y-3.9055
X9.1043Y-5.2244
X9.1043Y-5.3228
X9.1043Y-6.6417
X9.1043Y-6.7402
X9.1043Y-8.0591
X9.1043Y-8.1575
X9.1378Y-2.3898
X9.1378Y-2.4882
X9.1378Y-3.8071
X9.1378Y-3.9055
X9.1378Y-5.2244
X9.1378Y-5.3228
X9.1378Y-6.6417
X9.1378Y-6.7402
X9.1378Y-8.0591
X9.1378Y-8.1575
X9.6457Y-3.1142
X9.6457Y-3.1476
X9.6457Y-3.1811
X9.6457Y-4.5315
X9.6457Y-4.565
X9.6457Y-4.5984
X9.6457Y-5.9488
X9.6457Y-5.9823
X9.6457Y-6.0157
X9.6457Y-7.3661
X9.6457Y-7.3996
X9.6457Y-7.4331
X9.7441Y-3.1142
X9.7441Y-3.1476
X9.7441Y-3.1811
X9.7441Y-4.5315
X9.7441Y-4.565
X9.7441Y-4.5984
X9.7441Y-5.9488
X9.7441Y-5.9823
X9.7441Y-6.0157
X9.7441Y-7.3661
X9.7441Y-7.3996
X9.7441Y-7.4331
X10.252Y-5.2244
X10.252Y-5.3228
X10.252Y-6.6417
X10.252Y-6.7402
X10.252Y-8.0591
X10.252Y-8.1575
X10.2854Y-5.2244
X10.2854Y-5.3228
X10.2854Y-6.6417
X10.2854Y-6.7402
X10.2854Y-8.0591
X10.2854Y-8.1575
X10.3189Y-5.2244
X10.3189Y-5.3228
X10.3189Y-6.6417
X10.3189Y-6.7402
X10.3189Y-8.0591
X10.3189Y-8.1575
X10.8268Y-5.9488
X10.8268Y-5.9823
X10.8268Y-6.0157
X10.8268Y-7.3661
X10.8268Y-7.3996
X10.8268Y-7.4331
X10.9252Y-5.9488
X10.9252Y-5.9823
X10.9252Y-6.0157
X10.9252Y-7.3661
X10.9252Y-7.3996
X10.9252Y-7.4331
T2
X5.3307Y-6.5827
X5.3307Y-7.7047
X5.3406Y-2.6063
X5.3406Y-3.7283
X5.3406Y-4.4173
X5.3406Y-5.5394
X6.1772Y-6.5827
X6.1772Y-7.7047
X6.187Y-2.6063
X6.187Y-3.7283
X6.187Y-4.4173
X6.187Y-5.5394
X6.9154Y-2.6063
X6.9154Y-3.7283
X6.9154Y-4.4173
X6.9154Y-5.5394
X6.9252Y-6.5827
X6.9252Y-7.7047
X7.7618Y-2.6063
X7.7618Y-3.7283
X7.7618Y-4.4173
X7.7618Y-5.5394
X7.7717Y-6.5827
X7.7717Y-7.7047
X8.6811Y-2.5866
X8.6811Y-3.7087
X8.6811Y-4.0039
X8.6811Y-5.126
X8.6811Y-5.4213
X8.6811Y-6.5433
X8.6811Y-6.8386
X8.6811Y-7.9606
X9.5276Y-2.5866
X9.5276Y-3.7087
X9.5276Y-4.0039
X9.5276Y-5.126
X9.5276Y-5.4213
X9.5276Y-6.5433
X9.5276Y-6.8386
X9.5276Y-7.9606
X9.8622Y-5.4213
X9.8622Y-6.5433
X9.8622Y-6.8386
X9.8622Y-7.9606
X10.7087Y-5.4213
X10.7087Y-6.5433
X10.7087Y-6.8386
X10.7087Y-7.9606
M30
