%TF.GenerationSoftware,KiCad,Pcbnew,7.0.11+dfsg-1build4*%
%TF.CreationDate,2025-08-11T18:09:29+02:00*%
%TF.ProjectId,pendulum,70656e64-756c-4756-9d2e-6b696361645f,rev?*%
%TF.SameCoordinates,Original*%
%TF.FileFunction,Legend,Bot*%
%TF.FilePolarity,Positive*%
%FSLAX46Y46*%
G04 Gerber Fmt 4.6, Leading zero omitted, Abs format (unit mm)*
G04 Created by KiCad (PCBNEW 7.0.11+dfsg-1build4) date 2025-08-11 18:09:29*
%MOMM*%
%LPD*%
G01*
G04 APERTURE LIST*
%ADD10C,0.150000*%
%ADD11C,0.120000*%
G04 APERTURE END LIST*
D10*
X146316666Y-181404819D02*
X146792856Y-181404819D01*
X146792856Y-181404819D02*
X146792856Y-180404819D01*
X146030951Y-180500057D02*
X145983332Y-180452438D01*
X145983332Y-180452438D02*
X145888094Y-180404819D01*
X145888094Y-180404819D02*
X145649999Y-180404819D01*
X145649999Y-180404819D02*
X145554761Y-180452438D01*
X145554761Y-180452438D02*
X145507142Y-180500057D01*
X145507142Y-180500057D02*
X145459523Y-180595295D01*
X145459523Y-180595295D02*
X145459523Y-180690533D01*
X145459523Y-180690533D02*
X145507142Y-180833390D01*
X145507142Y-180833390D02*
X146078570Y-181404819D01*
X146078570Y-181404819D02*
X145459523Y-181404819D01*
X146316666Y-172959580D02*
X146364285Y-173007200D01*
X146364285Y-173007200D02*
X146507142Y-173054819D01*
X146507142Y-173054819D02*
X146602380Y-173054819D01*
X146602380Y-173054819D02*
X146745237Y-173007200D01*
X146745237Y-173007200D02*
X146840475Y-172911961D01*
X146840475Y-172911961D02*
X146888094Y-172816723D01*
X146888094Y-172816723D02*
X146935713Y-172626247D01*
X146935713Y-172626247D02*
X146935713Y-172483390D01*
X146935713Y-172483390D02*
X146888094Y-172292914D01*
X146888094Y-172292914D02*
X146840475Y-172197676D01*
X146840475Y-172197676D02*
X146745237Y-172102438D01*
X146745237Y-172102438D02*
X146602380Y-172054819D01*
X146602380Y-172054819D02*
X146507142Y-172054819D01*
X146507142Y-172054819D02*
X146364285Y-172102438D01*
X146364285Y-172102438D02*
X146316666Y-172150057D01*
X145935713Y-172150057D02*
X145888094Y-172102438D01*
X145888094Y-172102438D02*
X145792856Y-172054819D01*
X145792856Y-172054819D02*
X145554761Y-172054819D01*
X145554761Y-172054819D02*
X145459523Y-172102438D01*
X145459523Y-172102438D02*
X145411904Y-172150057D01*
X145411904Y-172150057D02*
X145364285Y-172245295D01*
X145364285Y-172245295D02*
X145364285Y-172340533D01*
X145364285Y-172340533D02*
X145411904Y-172483390D01*
X145411904Y-172483390D02*
X145983332Y-173054819D01*
X145983332Y-173054819D02*
X145364285Y-173054819D01*
X146316666Y-186959580D02*
X146364285Y-187007200D01*
X146364285Y-187007200D02*
X146507142Y-187054819D01*
X146507142Y-187054819D02*
X146602380Y-187054819D01*
X146602380Y-187054819D02*
X146745237Y-187007200D01*
X146745237Y-187007200D02*
X146840475Y-186911961D01*
X146840475Y-186911961D02*
X146888094Y-186816723D01*
X146888094Y-186816723D02*
X146935713Y-186626247D01*
X146935713Y-186626247D02*
X146935713Y-186483390D01*
X146935713Y-186483390D02*
X146888094Y-186292914D01*
X146888094Y-186292914D02*
X146840475Y-186197676D01*
X146840475Y-186197676D02*
X146745237Y-186102438D01*
X146745237Y-186102438D02*
X146602380Y-186054819D01*
X146602380Y-186054819D02*
X146507142Y-186054819D01*
X146507142Y-186054819D02*
X146364285Y-186102438D01*
X146364285Y-186102438D02*
X146316666Y-186150057D01*
X145364285Y-187054819D02*
X145935713Y-187054819D01*
X145649999Y-187054819D02*
X145649999Y-186054819D01*
X145649999Y-186054819D02*
X145745237Y-186197676D01*
X145745237Y-186197676D02*
X145840475Y-186292914D01*
X145840475Y-186292914D02*
X145935713Y-186340533D01*
X186816666Y-176659580D02*
X186864285Y-176707200D01*
X186864285Y-176707200D02*
X187007142Y-176754819D01*
X187007142Y-176754819D02*
X187102380Y-176754819D01*
X187102380Y-176754819D02*
X187245237Y-176707200D01*
X187245237Y-176707200D02*
X187340475Y-176611961D01*
X187340475Y-176611961D02*
X187388094Y-176516723D01*
X187388094Y-176516723D02*
X187435713Y-176326247D01*
X187435713Y-176326247D02*
X187435713Y-176183390D01*
X187435713Y-176183390D02*
X187388094Y-175992914D01*
X187388094Y-175992914D02*
X187340475Y-175897676D01*
X187340475Y-175897676D02*
X187245237Y-175802438D01*
X187245237Y-175802438D02*
X187102380Y-175754819D01*
X187102380Y-175754819D02*
X187007142Y-175754819D01*
X187007142Y-175754819D02*
X186864285Y-175802438D01*
X186864285Y-175802438D02*
X186816666Y-175850057D01*
X185959523Y-176088152D02*
X185959523Y-176754819D01*
X186197618Y-175707200D02*
X186435713Y-176421485D01*
X186435713Y-176421485D02*
X185816666Y-176421485D01*
X186816666Y-181404819D02*
X187292856Y-181404819D01*
X187292856Y-181404819D02*
X187292856Y-180404819D01*
X185959523Y-181404819D02*
X186530951Y-181404819D01*
X186245237Y-181404819D02*
X186245237Y-180404819D01*
X186245237Y-180404819D02*
X186340475Y-180547676D01*
X186340475Y-180547676D02*
X186435713Y-180642914D01*
X186435713Y-180642914D02*
X186530951Y-180690533D01*
X186816666Y-190659580D02*
X186864285Y-190707200D01*
X186864285Y-190707200D02*
X187007142Y-190754819D01*
X187007142Y-190754819D02*
X187102380Y-190754819D01*
X187102380Y-190754819D02*
X187245237Y-190707200D01*
X187245237Y-190707200D02*
X187340475Y-190611961D01*
X187340475Y-190611961D02*
X187388094Y-190516723D01*
X187388094Y-190516723D02*
X187435713Y-190326247D01*
X187435713Y-190326247D02*
X187435713Y-190183390D01*
X187435713Y-190183390D02*
X187388094Y-189992914D01*
X187388094Y-189992914D02*
X187340475Y-189897676D01*
X187340475Y-189897676D02*
X187245237Y-189802438D01*
X187245237Y-189802438D02*
X187102380Y-189754819D01*
X187102380Y-189754819D02*
X187007142Y-189754819D01*
X187007142Y-189754819D02*
X186864285Y-189802438D01*
X186864285Y-189802438D02*
X186816666Y-189850057D01*
X186483332Y-189754819D02*
X185864285Y-189754819D01*
X185864285Y-189754819D02*
X186197618Y-190135771D01*
X186197618Y-190135771D02*
X186054761Y-190135771D01*
X186054761Y-190135771D02*
X185959523Y-190183390D01*
X185959523Y-190183390D02*
X185911904Y-190231009D01*
X185911904Y-190231009D02*
X185864285Y-190326247D01*
X185864285Y-190326247D02*
X185864285Y-190564342D01*
X185864285Y-190564342D02*
X185911904Y-190659580D01*
X185911904Y-190659580D02*
X185959523Y-190707200D01*
X185959523Y-190707200D02*
X186054761Y-190754819D01*
X186054761Y-190754819D02*
X186340475Y-190754819D01*
X186340475Y-190754819D02*
X186435713Y-190707200D01*
X186435713Y-190707200D02*
X186483332Y-190659580D01*
D11*
%TO.C,L2*%
X164650000Y-197950000D02*
X164650000Y-164950000D01*
X159650000Y-159950000D02*
X132650000Y-159950000D01*
X159650000Y-196450000D02*
X159650000Y-195130000D01*
X159650000Y-194650000D02*
X159650000Y-193330000D01*
X159650000Y-192850000D02*
X159650000Y-191530000D01*
X159650000Y-191050000D02*
X159650000Y-189730000D01*
X159650000Y-189250000D02*
X159650000Y-187930000D01*
X159650000Y-187450000D02*
X159650000Y-186130000D01*
X159650000Y-185650000D02*
X159650000Y-184330000D01*
X159650000Y-183850000D02*
X159650000Y-182530000D01*
X159650000Y-182050000D02*
X159650000Y-180730000D01*
X159650000Y-180250000D02*
X159650000Y-178930000D01*
X159650000Y-178450000D02*
X159650000Y-177130000D01*
X159650000Y-176650000D02*
X159650000Y-175330000D01*
X159650000Y-174850000D02*
X159650000Y-173530000D01*
X159650000Y-173050000D02*
X159650000Y-171730000D01*
X159650000Y-171250000D02*
X159650000Y-169930000D01*
X159650000Y-169450000D02*
X159650000Y-168130000D01*
X159650000Y-167650000D02*
X159650000Y-166450000D01*
X158150000Y-164950000D02*
X156830000Y-164950000D01*
X156350000Y-164950000D02*
X155030000Y-164950000D01*
X154550000Y-164950000D02*
X153230000Y-164950000D01*
X152750000Y-164950000D02*
X151430000Y-164950000D01*
X150950000Y-164950000D02*
X149630000Y-164950000D01*
X149150000Y-164950000D02*
X147830000Y-164950000D01*
X147350000Y-164950000D02*
X146030000Y-164950000D01*
X145550000Y-164950000D02*
X144230000Y-164950000D01*
X143750000Y-164950000D02*
X142430000Y-164950000D01*
X141950000Y-164950000D02*
X140630000Y-164950000D01*
X140150000Y-164950000D02*
X138830000Y-164950000D01*
X138350000Y-164950000D02*
X137030000Y-164950000D01*
X136550000Y-164950000D02*
X135230000Y-164950000D01*
X134750000Y-164950000D02*
X134150000Y-164950000D01*
X154150000Y-191950000D02*
X154150000Y-170950000D01*
X152650000Y-169450000D02*
X139650000Y-169450000D01*
X139650000Y-193450000D02*
X152650000Y-193450000D01*
X138150000Y-170950000D02*
X138150000Y-191950000D01*
X134150000Y-197950000D02*
X135470000Y-197950000D01*
X135950000Y-197950000D02*
X137270000Y-197950000D01*
X137750000Y-197950000D02*
X139070000Y-197950000D01*
X139550000Y-197950000D02*
X140870000Y-197950000D01*
X141350000Y-197950000D02*
X142670000Y-197950000D01*
X143150000Y-197950000D02*
X144470000Y-197950000D01*
X144950000Y-197950000D02*
X146270000Y-197950000D01*
X146750000Y-197950000D02*
X148070000Y-197950000D01*
X148550000Y-197950000D02*
X149870000Y-197950000D01*
X150350000Y-197950000D02*
X151670000Y-197950000D01*
X152150000Y-197950000D02*
X153470000Y-197950000D01*
X153950000Y-197950000D02*
X155270000Y-197950000D01*
X155750000Y-197950000D02*
X157070000Y-197950000D01*
X157550000Y-197950000D02*
X158150000Y-197950000D01*
X132650000Y-166450000D02*
X132650000Y-167770000D01*
X132650000Y-168250000D02*
X132650000Y-169570000D01*
X132650000Y-170050000D02*
X132650000Y-171370000D01*
X132650000Y-171850000D02*
X132650000Y-173170000D01*
X132650000Y-173650000D02*
X132650000Y-174970000D01*
X132650000Y-175450000D02*
X132650000Y-176770000D01*
X132650000Y-177250000D02*
X132650000Y-178570000D01*
X132650000Y-179050000D02*
X132650000Y-180370000D01*
X132650000Y-180850000D02*
X132650000Y-182170000D01*
X132650000Y-182650000D02*
X132650000Y-183970000D01*
X132650000Y-184450000D02*
X132650000Y-185770000D01*
X132650000Y-186250000D02*
X132650000Y-187570000D01*
X132650000Y-188050000D02*
X132650000Y-189370000D01*
X132650000Y-189850000D02*
X132650000Y-191170000D01*
X132650000Y-191650000D02*
X132650000Y-192970000D01*
X132650000Y-193450000D02*
X132650000Y-194770000D01*
X132650000Y-195250000D02*
X132650000Y-196450000D01*
X132650000Y-202950000D02*
X159650000Y-202950000D01*
X127650000Y-164950000D02*
X127650000Y-197950000D01*
X164650000Y-164950000D02*
G75*
G03*
X159650000Y-159950000I-5000000J0D01*
G01*
X159650000Y-166450000D02*
G75*
G03*
X158150000Y-164950000I-1500001J-1D01*
G01*
X159650000Y-202950000D02*
G75*
G03*
X164650000Y-197950000I0J5000000D01*
G01*
X158150000Y-197950000D02*
G75*
G03*
X159650000Y-196450000I-1J1500001D01*
G01*
X154150000Y-170950000D02*
G75*
G03*
X152650000Y-169450000I-1500001J-1D01*
G01*
X152650000Y-193450000D02*
G75*
G03*
X154150000Y-191950000I-1J1500001D01*
G01*
X139650000Y-169450000D02*
G75*
G03*
X138150000Y-170950000I0J-1500000D01*
G01*
X138150000Y-191950000D02*
G75*
G03*
X139650000Y-193450000I1500000J0D01*
G01*
X134150000Y-164950000D02*
G75*
G03*
X132650000Y-166450000I0J-1500000D01*
G01*
X132650000Y-159950000D02*
G75*
G03*
X127650000Y-164950000I0J-5000000D01*
G01*
X132650000Y-196450000D02*
G75*
G03*
X134150000Y-197950000I1500000J0D01*
G01*
X127650000Y-197950000D02*
G75*
G03*
X132650000Y-202950000I5000000J0D01*
G01*
%TO.C,C2*%
X146861252Y-175360000D02*
X145438748Y-175360000D01*
X146861252Y-173540000D02*
X145438748Y-173540000D01*
%TO.C,C1*%
X146861252Y-189360000D02*
X145438748Y-189360000D01*
X146861252Y-187540000D02*
X145438748Y-187540000D01*
%TO.C,C4*%
X185938748Y-173540000D02*
X187361252Y-173540000D01*
X185938748Y-175360000D02*
X187361252Y-175360000D01*
%TO.C,L1*%
X205150000Y-197950000D02*
X205150000Y-164950000D01*
X200150000Y-159950000D02*
X173150000Y-159950000D01*
X200150000Y-196450000D02*
X200150000Y-195130000D01*
X200150000Y-194650000D02*
X200150000Y-193330000D01*
X200150000Y-192850000D02*
X200150000Y-191530000D01*
X200150000Y-191050000D02*
X200150000Y-189730000D01*
X200150000Y-189250000D02*
X200150000Y-187930000D01*
X200150000Y-187450000D02*
X200150000Y-186130000D01*
X200150000Y-185650000D02*
X200150000Y-184330000D01*
X200150000Y-183850000D02*
X200150000Y-182530000D01*
X200150000Y-182050000D02*
X200150000Y-180730000D01*
X200150000Y-180250000D02*
X200150000Y-178930000D01*
X200150000Y-178450000D02*
X200150000Y-177130000D01*
X200150000Y-176650000D02*
X200150000Y-175330000D01*
X200150000Y-174850000D02*
X200150000Y-173530000D01*
X200150000Y-173050000D02*
X200150000Y-171730000D01*
X200150000Y-171250000D02*
X200150000Y-169930000D01*
X200150000Y-169450000D02*
X200150000Y-168130000D01*
X200150000Y-167650000D02*
X200150000Y-166450000D01*
X198650000Y-164950000D02*
X197330000Y-164950000D01*
X196850000Y-164950000D02*
X195530000Y-164950000D01*
X195050000Y-164950000D02*
X193730000Y-164950000D01*
X193250000Y-164950000D02*
X191930000Y-164950000D01*
X191450000Y-164950000D02*
X190130000Y-164950000D01*
X189650000Y-164950000D02*
X188330000Y-164950000D01*
X187850000Y-164950000D02*
X186530000Y-164950000D01*
X186050000Y-164950000D02*
X184730000Y-164950000D01*
X184250000Y-164950000D02*
X182930000Y-164950000D01*
X182450000Y-164950000D02*
X181130000Y-164950000D01*
X180650000Y-164950000D02*
X179330000Y-164950000D01*
X178850000Y-164950000D02*
X177530000Y-164950000D01*
X177050000Y-164950000D02*
X175730000Y-164950000D01*
X175250000Y-164950000D02*
X174650000Y-164950000D01*
X194650000Y-191950000D02*
X194650000Y-170950000D01*
X193150000Y-169450000D02*
X180150000Y-169450000D01*
X180150000Y-193450000D02*
X193150000Y-193450000D01*
X178650000Y-170950000D02*
X178650000Y-191950000D01*
X174650000Y-197950000D02*
X175970000Y-197950000D01*
X176450000Y-197950000D02*
X177770000Y-197950000D01*
X178250000Y-197950000D02*
X179570000Y-197950000D01*
X180050000Y-197950000D02*
X181370000Y-197950000D01*
X181850000Y-197950000D02*
X183170000Y-197950000D01*
X183650000Y-197950000D02*
X184970000Y-197950000D01*
X185450000Y-197950000D02*
X186770000Y-197950000D01*
X187250000Y-197950000D02*
X188570000Y-197950000D01*
X189050000Y-197950000D02*
X190370000Y-197950000D01*
X190850000Y-197950000D02*
X192170000Y-197950000D01*
X192650000Y-197950000D02*
X193970000Y-197950000D01*
X194450000Y-197950000D02*
X195770000Y-197950000D01*
X196250000Y-197950000D02*
X197570000Y-197950000D01*
X198050000Y-197950000D02*
X198650000Y-197950000D01*
X173150000Y-166450000D02*
X173150000Y-167770000D01*
X173150000Y-168250000D02*
X173150000Y-169570000D01*
X173150000Y-170050000D02*
X173150000Y-171370000D01*
X173150000Y-171850000D02*
X173150000Y-173170000D01*
X173150000Y-173650000D02*
X173150000Y-174970000D01*
X173150000Y-175450000D02*
X173150000Y-176770000D01*
X173150000Y-177250000D02*
X173150000Y-178570000D01*
X173150000Y-179050000D02*
X173150000Y-180370000D01*
X173150000Y-180850000D02*
X173150000Y-182170000D01*
X173150000Y-182650000D02*
X173150000Y-183970000D01*
X173150000Y-184450000D02*
X173150000Y-185770000D01*
X173150000Y-186250000D02*
X173150000Y-187570000D01*
X173150000Y-188050000D02*
X173150000Y-189370000D01*
X173150000Y-189850000D02*
X173150000Y-191170000D01*
X173150000Y-191650000D02*
X173150000Y-192970000D01*
X173150000Y-193450000D02*
X173150000Y-194770000D01*
X173150000Y-195250000D02*
X173150000Y-196450000D01*
X173150000Y-202950000D02*
X200150000Y-202950000D01*
X168150000Y-164950000D02*
X168150000Y-197950000D01*
X205150000Y-164950000D02*
G75*
G03*
X200150000Y-159950000I-5000000J0D01*
G01*
X200150000Y-166450000D02*
G75*
G03*
X198650000Y-164950000I-1500001J-1D01*
G01*
X200150000Y-202950000D02*
G75*
G03*
X205150000Y-197950000I0J5000000D01*
G01*
X198650000Y-197950000D02*
G75*
G03*
X200150000Y-196450000I-1J1500001D01*
G01*
X194650000Y-170950000D02*
G75*
G03*
X193150000Y-169450000I-1500001J-1D01*
G01*
X193150000Y-193450000D02*
G75*
G03*
X194650000Y-191950000I-1J1500001D01*
G01*
X180150000Y-169450000D02*
G75*
G03*
X178650000Y-170950000I0J-1500000D01*
G01*
X178650000Y-191950000D02*
G75*
G03*
X180150000Y-193450000I1500000J0D01*
G01*
X174650000Y-164950000D02*
G75*
G03*
X173150000Y-166450000I0J-1500000D01*
G01*
X173150000Y-159950000D02*
G75*
G03*
X168150000Y-164950000I0J-5000000D01*
G01*
X173150000Y-196450000D02*
G75*
G03*
X174650000Y-197950000I1500000J0D01*
G01*
X168150000Y-197950000D02*
G75*
G03*
X173150000Y-202950000I5000000J0D01*
G01*
%TO.C,C3*%
X185938748Y-187540000D02*
X187361252Y-187540000D01*
X185938748Y-189360000D02*
X187361252Y-189360000D01*
%TD*%
M02*
