%TF.GenerationSoftware,KiCad,Pcbnew,7.0.11+dfsg-1build4*%
%TF.CreationDate,2025-08-11T18:09:29+02:00*%
%TF.ProjectId,pendulum,70656e64-756c-4756-9d2e-6b696361645f,rev?*%
%TF.SameCoordinates,Original*%
%TF.FileFunction,Legend,Top*%
%TF.FilePolarity,Positive*%
%FSLAX46Y46*%
G04 Gerber Fmt 4.6, Leading zero omitted, Abs format (unit mm)*
G04 Created by KiCad (PCBNEW 7.0.11+dfsg-1build4) date 2025-08-11 18:09:29*
%MOMM*%
%LPD*%
G01*
G04 APERTURE LIST*
%ADD10C,0.150000*%
%ADD11C,0.120000*%
G04 APERTURE END LIST*
D10*
X185590476Y-112404819D02*
X185590476Y-111404819D01*
X185590476Y-111404819D02*
X185923809Y-112119104D01*
X185923809Y-112119104D02*
X186257142Y-111404819D01*
X186257142Y-111404819D02*
X186257142Y-112404819D01*
X187209523Y-111404819D02*
X186733333Y-111404819D01*
X186733333Y-111404819D02*
X186685714Y-111881009D01*
X186685714Y-111881009D02*
X186733333Y-111833390D01*
X186733333Y-111833390D02*
X186828571Y-111785771D01*
X186828571Y-111785771D02*
X187066666Y-111785771D01*
X187066666Y-111785771D02*
X187161904Y-111833390D01*
X187161904Y-111833390D02*
X187209523Y-111881009D01*
X187209523Y-111881009D02*
X187257142Y-111976247D01*
X187257142Y-111976247D02*
X187257142Y-112214342D01*
X187257142Y-112214342D02*
X187209523Y-112309580D01*
X187209523Y-112309580D02*
X187161904Y-112357200D01*
X187161904Y-112357200D02*
X187066666Y-112404819D01*
X187066666Y-112404819D02*
X186828571Y-112404819D01*
X186828571Y-112404819D02*
X186733333Y-112357200D01*
X186733333Y-112357200D02*
X186685714Y-112309580D01*
X185911905Y-181404819D02*
X185911905Y-180404819D01*
X185911905Y-180404819D02*
X186150000Y-180404819D01*
X186150000Y-180404819D02*
X186292857Y-180452438D01*
X186292857Y-180452438D02*
X186388095Y-180547676D01*
X186388095Y-180547676D02*
X186435714Y-180642914D01*
X186435714Y-180642914D02*
X186483333Y-180833390D01*
X186483333Y-180833390D02*
X186483333Y-180976247D01*
X186483333Y-180976247D02*
X186435714Y-181166723D01*
X186435714Y-181166723D02*
X186388095Y-181261961D01*
X186388095Y-181261961D02*
X186292857Y-181357200D01*
X186292857Y-181357200D02*
X186150000Y-181404819D01*
X186150000Y-181404819D02*
X185911905Y-181404819D01*
X186864286Y-180500057D02*
X186911905Y-180452438D01*
X186911905Y-180452438D02*
X187007143Y-180404819D01*
X187007143Y-180404819D02*
X187245238Y-180404819D01*
X187245238Y-180404819D02*
X187340476Y-180452438D01*
X187340476Y-180452438D02*
X187388095Y-180500057D01*
X187388095Y-180500057D02*
X187435714Y-180595295D01*
X187435714Y-180595295D02*
X187435714Y-180690533D01*
X187435714Y-180690533D02*
X187388095Y-180833390D01*
X187388095Y-180833390D02*
X186816667Y-181404819D01*
X186816667Y-181404819D02*
X187435714Y-181404819D01*
X230440476Y-138404819D02*
X230440476Y-137404819D01*
X230440476Y-137404819D02*
X230773809Y-138119104D01*
X230773809Y-138119104D02*
X231107142Y-137404819D01*
X231107142Y-137404819D02*
X231107142Y-138404819D01*
X232011904Y-137738152D02*
X232011904Y-138404819D01*
X231773809Y-137357200D02*
X231535714Y-138071485D01*
X231535714Y-138071485D02*
X232154761Y-138071485D01*
X145411905Y-181404819D02*
X145411905Y-180404819D01*
X145411905Y-180404819D02*
X145650000Y-180404819D01*
X145650000Y-180404819D02*
X145792857Y-180452438D01*
X145792857Y-180452438D02*
X145888095Y-180547676D01*
X145888095Y-180547676D02*
X145935714Y-180642914D01*
X145935714Y-180642914D02*
X145983333Y-180833390D01*
X145983333Y-180833390D02*
X145983333Y-180976247D01*
X145983333Y-180976247D02*
X145935714Y-181166723D01*
X145935714Y-181166723D02*
X145888095Y-181261961D01*
X145888095Y-181261961D02*
X145792857Y-181357200D01*
X145792857Y-181357200D02*
X145650000Y-181404819D01*
X145650000Y-181404819D02*
X145411905Y-181404819D01*
X146935714Y-181404819D02*
X146364286Y-181404819D01*
X146650000Y-181404819D02*
X146650000Y-180404819D01*
X146650000Y-180404819D02*
X146554762Y-180547676D01*
X146554762Y-180547676D02*
X146459524Y-180642914D01*
X146459524Y-180642914D02*
X146364286Y-180690533D01*
X185114286Y-66404819D02*
X185114286Y-65404819D01*
X185114286Y-65404819D02*
X185447619Y-66119104D01*
X185447619Y-66119104D02*
X185780952Y-65404819D01*
X185780952Y-65404819D02*
X185780952Y-66404819D01*
X186780952Y-66404819D02*
X186209524Y-66404819D01*
X186495238Y-66404819D02*
X186495238Y-65404819D01*
X186495238Y-65404819D02*
X186400000Y-65547676D01*
X186400000Y-65547676D02*
X186304762Y-65642914D01*
X186304762Y-65642914D02*
X186209524Y-65690533D01*
X187400000Y-65404819D02*
X187495238Y-65404819D01*
X187495238Y-65404819D02*
X187590476Y-65452438D01*
X187590476Y-65452438D02*
X187638095Y-65500057D01*
X187638095Y-65500057D02*
X187685714Y-65595295D01*
X187685714Y-65595295D02*
X187733333Y-65785771D01*
X187733333Y-65785771D02*
X187733333Y-66023866D01*
X187733333Y-66023866D02*
X187685714Y-66214342D01*
X187685714Y-66214342D02*
X187638095Y-66309580D01*
X187638095Y-66309580D02*
X187590476Y-66357200D01*
X187590476Y-66357200D02*
X187495238Y-66404819D01*
X187495238Y-66404819D02*
X187400000Y-66404819D01*
X187400000Y-66404819D02*
X187304762Y-66357200D01*
X187304762Y-66357200D02*
X187257143Y-66309580D01*
X187257143Y-66309580D02*
X187209524Y-66214342D01*
X187209524Y-66214342D02*
X187161905Y-66023866D01*
X187161905Y-66023866D02*
X187161905Y-65785771D01*
X187161905Y-65785771D02*
X187209524Y-65595295D01*
X187209524Y-65595295D02*
X187257143Y-65500057D01*
X187257143Y-65500057D02*
X187304762Y-65452438D01*
X187304762Y-65452438D02*
X187400000Y-65404819D01*
X145590476Y-112404819D02*
X145590476Y-111404819D01*
X145590476Y-111404819D02*
X145923809Y-112119104D01*
X145923809Y-112119104D02*
X146257142Y-111404819D01*
X146257142Y-111404819D02*
X146257142Y-112404819D01*
X147257142Y-112404819D02*
X146685714Y-112404819D01*
X146971428Y-112404819D02*
X146971428Y-111404819D01*
X146971428Y-111404819D02*
X146876190Y-111547676D01*
X146876190Y-111547676D02*
X146780952Y-111642914D01*
X146780952Y-111642914D02*
X146685714Y-111690533D01*
X230440476Y-66404819D02*
X230440476Y-65404819D01*
X230440476Y-65404819D02*
X230773809Y-66119104D01*
X230773809Y-66119104D02*
X231107142Y-65404819D01*
X231107142Y-65404819D02*
X231107142Y-66404819D01*
X231535714Y-65500057D02*
X231583333Y-65452438D01*
X231583333Y-65452438D02*
X231678571Y-65404819D01*
X231678571Y-65404819D02*
X231916666Y-65404819D01*
X231916666Y-65404819D02*
X232011904Y-65452438D01*
X232011904Y-65452438D02*
X232059523Y-65500057D01*
X232059523Y-65500057D02*
X232107142Y-65595295D01*
X232107142Y-65595295D02*
X232107142Y-65690533D01*
X232107142Y-65690533D02*
X232059523Y-65833390D01*
X232059523Y-65833390D02*
X231488095Y-66404819D01*
X231488095Y-66404819D02*
X232107142Y-66404819D01*
X260440476Y-174404819D02*
X260440476Y-173404819D01*
X260440476Y-173404819D02*
X260773809Y-174119104D01*
X260773809Y-174119104D02*
X261107142Y-173404819D01*
X261107142Y-173404819D02*
X261107142Y-174404819D01*
X261726190Y-173833390D02*
X261630952Y-173785771D01*
X261630952Y-173785771D02*
X261583333Y-173738152D01*
X261583333Y-173738152D02*
X261535714Y-173642914D01*
X261535714Y-173642914D02*
X261535714Y-173595295D01*
X261535714Y-173595295D02*
X261583333Y-173500057D01*
X261583333Y-173500057D02*
X261630952Y-173452438D01*
X261630952Y-173452438D02*
X261726190Y-173404819D01*
X261726190Y-173404819D02*
X261916666Y-173404819D01*
X261916666Y-173404819D02*
X262011904Y-173452438D01*
X262011904Y-173452438D02*
X262059523Y-173500057D01*
X262059523Y-173500057D02*
X262107142Y-173595295D01*
X262107142Y-173595295D02*
X262107142Y-173642914D01*
X262107142Y-173642914D02*
X262059523Y-173738152D01*
X262059523Y-173738152D02*
X262011904Y-173785771D01*
X262011904Y-173785771D02*
X261916666Y-173833390D01*
X261916666Y-173833390D02*
X261726190Y-173833390D01*
X261726190Y-173833390D02*
X261630952Y-173881009D01*
X261630952Y-173881009D02*
X261583333Y-173928628D01*
X261583333Y-173928628D02*
X261535714Y-174023866D01*
X261535714Y-174023866D02*
X261535714Y-174214342D01*
X261535714Y-174214342D02*
X261583333Y-174309580D01*
X261583333Y-174309580D02*
X261630952Y-174357200D01*
X261630952Y-174357200D02*
X261726190Y-174404819D01*
X261726190Y-174404819D02*
X261916666Y-174404819D01*
X261916666Y-174404819D02*
X262011904Y-174357200D01*
X262011904Y-174357200D02*
X262059523Y-174309580D01*
X262059523Y-174309580D02*
X262107142Y-174214342D01*
X262107142Y-174214342D02*
X262107142Y-174023866D01*
X262107142Y-174023866D02*
X262059523Y-173928628D01*
X262059523Y-173928628D02*
X262011904Y-173881009D01*
X262011904Y-173881009D02*
X261916666Y-173833390D01*
X230440476Y-174404819D02*
X230440476Y-173404819D01*
X230440476Y-173404819D02*
X230773809Y-174119104D01*
X230773809Y-174119104D02*
X231107142Y-173404819D01*
X231107142Y-173404819D02*
X231107142Y-174404819D01*
X231630952Y-174404819D02*
X231821428Y-174404819D01*
X231821428Y-174404819D02*
X231916666Y-174357200D01*
X231916666Y-174357200D02*
X231964285Y-174309580D01*
X231964285Y-174309580D02*
X232059523Y-174166723D01*
X232059523Y-174166723D02*
X232107142Y-173976247D01*
X232107142Y-173976247D02*
X232107142Y-173595295D01*
X232107142Y-173595295D02*
X232059523Y-173500057D01*
X232059523Y-173500057D02*
X232011904Y-173452438D01*
X232011904Y-173452438D02*
X231916666Y-173404819D01*
X231916666Y-173404819D02*
X231726190Y-173404819D01*
X231726190Y-173404819D02*
X231630952Y-173452438D01*
X231630952Y-173452438D02*
X231583333Y-173500057D01*
X231583333Y-173500057D02*
X231535714Y-173595295D01*
X231535714Y-173595295D02*
X231535714Y-173833390D01*
X231535714Y-173833390D02*
X231583333Y-173928628D01*
X231583333Y-173928628D02*
X231630952Y-173976247D01*
X231630952Y-173976247D02*
X231726190Y-174023866D01*
X231726190Y-174023866D02*
X231916666Y-174023866D01*
X231916666Y-174023866D02*
X232011904Y-173976247D01*
X232011904Y-173976247D02*
X232059523Y-173928628D01*
X232059523Y-173928628D02*
X232107142Y-173833390D01*
X260440476Y-138404819D02*
X260440476Y-137404819D01*
X260440476Y-137404819D02*
X260773809Y-138119104D01*
X260773809Y-138119104D02*
X261107142Y-137404819D01*
X261107142Y-137404819D02*
X261107142Y-138404819D01*
X261488095Y-137404819D02*
X262107142Y-137404819D01*
X262107142Y-137404819D02*
X261773809Y-137785771D01*
X261773809Y-137785771D02*
X261916666Y-137785771D01*
X261916666Y-137785771D02*
X262011904Y-137833390D01*
X262011904Y-137833390D02*
X262059523Y-137881009D01*
X262059523Y-137881009D02*
X262107142Y-137976247D01*
X262107142Y-137976247D02*
X262107142Y-138214342D01*
X262107142Y-138214342D02*
X262059523Y-138309580D01*
X262059523Y-138309580D02*
X262011904Y-138357200D01*
X262011904Y-138357200D02*
X261916666Y-138404819D01*
X261916666Y-138404819D02*
X261630952Y-138404819D01*
X261630952Y-138404819D02*
X261535714Y-138357200D01*
X261535714Y-138357200D02*
X261488095Y-138309580D01*
X145590476Y-66404819D02*
X145590476Y-65404819D01*
X145590476Y-65404819D02*
X145923809Y-66119104D01*
X145923809Y-66119104D02*
X146257142Y-65404819D01*
X146257142Y-65404819D02*
X146257142Y-66404819D01*
X147161904Y-65404819D02*
X146971428Y-65404819D01*
X146971428Y-65404819D02*
X146876190Y-65452438D01*
X146876190Y-65452438D02*
X146828571Y-65500057D01*
X146828571Y-65500057D02*
X146733333Y-65642914D01*
X146733333Y-65642914D02*
X146685714Y-65833390D01*
X146685714Y-65833390D02*
X146685714Y-66214342D01*
X146685714Y-66214342D02*
X146733333Y-66309580D01*
X146733333Y-66309580D02*
X146780952Y-66357200D01*
X146780952Y-66357200D02*
X146876190Y-66404819D01*
X146876190Y-66404819D02*
X147066666Y-66404819D01*
X147066666Y-66404819D02*
X147161904Y-66357200D01*
X147161904Y-66357200D02*
X147209523Y-66309580D01*
X147209523Y-66309580D02*
X147257142Y-66214342D01*
X147257142Y-66214342D02*
X147257142Y-65976247D01*
X147257142Y-65976247D02*
X147209523Y-65881009D01*
X147209523Y-65881009D02*
X147161904Y-65833390D01*
X147161904Y-65833390D02*
X147066666Y-65785771D01*
X147066666Y-65785771D02*
X146876190Y-65785771D01*
X146876190Y-65785771D02*
X146780952Y-65833390D01*
X146780952Y-65833390D02*
X146733333Y-65881009D01*
X146733333Y-65881009D02*
X146685714Y-65976247D01*
X230440476Y-102404819D02*
X230440476Y-101404819D01*
X230440476Y-101404819D02*
X230773809Y-102119104D01*
X230773809Y-102119104D02*
X231107142Y-101404819D01*
X231107142Y-101404819D02*
X231107142Y-102404819D01*
X231488095Y-101404819D02*
X232154761Y-101404819D01*
X232154761Y-101404819D02*
X231726190Y-102404819D01*
D11*
%TO.C,M5*%
X172900000Y-141450000D02*
X172900000Y-140130000D01*
X172900000Y-139650000D02*
X172900000Y-138330000D01*
X172900000Y-137850000D02*
X172900000Y-136530000D01*
X172900000Y-136050000D02*
X172900000Y-134730000D01*
X172900000Y-134250000D02*
X172900000Y-132930000D01*
X172900000Y-132450000D02*
X172900000Y-131130000D01*
X172900000Y-130650000D02*
X172900000Y-129330000D01*
X172900000Y-128850000D02*
X172900000Y-127530000D01*
X172900000Y-127050000D02*
X172900000Y-125730000D01*
X172900000Y-125250000D02*
X172900000Y-123930000D01*
X172900000Y-123450000D02*
X172900000Y-122130000D01*
X172900000Y-121650000D02*
X172900000Y-120330000D01*
X172900000Y-119850000D02*
X172900000Y-118530000D01*
X172900000Y-118050000D02*
X172900000Y-116730000D01*
X172900000Y-116250000D02*
X172900000Y-114930000D01*
X172900000Y-114450000D02*
X172900000Y-113130000D01*
X172900000Y-112650000D02*
X172900000Y-111450000D01*
X174400000Y-109950000D02*
X175720000Y-109950000D01*
X176200000Y-109950000D02*
X177520000Y-109950000D01*
X178000000Y-109950000D02*
X179320000Y-109950000D01*
X179800000Y-109950000D02*
X181120000Y-109950000D01*
X181600000Y-109950000D02*
X182920000Y-109950000D01*
X183400000Y-109950000D02*
X184720000Y-109950000D01*
X185200000Y-109950000D02*
X186520000Y-109950000D01*
X187000000Y-109950000D02*
X188320000Y-109950000D01*
X188800000Y-109950000D02*
X190120000Y-109950000D01*
X190600000Y-109950000D02*
X191920000Y-109950000D01*
X192400000Y-109950000D02*
X193720000Y-109950000D01*
X194200000Y-109950000D02*
X195520000Y-109950000D01*
X196000000Y-109950000D02*
X197320000Y-109950000D01*
X197800000Y-109950000D02*
X198400000Y-109950000D01*
X198400000Y-142950000D02*
X197080000Y-142950000D01*
X196600000Y-142950000D02*
X195280000Y-142950000D01*
X194800000Y-142950000D02*
X193480000Y-142950000D01*
X193000000Y-142950000D02*
X191680000Y-142950000D01*
X191200000Y-142950000D02*
X189880000Y-142950000D01*
X189400000Y-142950000D02*
X188080000Y-142950000D01*
X187600000Y-142950000D02*
X186280000Y-142950000D01*
X185800000Y-142950000D02*
X184480000Y-142950000D01*
X184000000Y-142950000D02*
X182680000Y-142950000D01*
X182200000Y-142950000D02*
X180880000Y-142950000D01*
X180400000Y-142950000D02*
X179080000Y-142950000D01*
X178600000Y-142950000D02*
X177280000Y-142950000D01*
X176800000Y-142950000D02*
X175480000Y-142950000D01*
X175000000Y-142950000D02*
X174400000Y-142950000D01*
X199900000Y-111450000D02*
X199900000Y-112770000D01*
X199900000Y-113250000D02*
X199900000Y-114570000D01*
X199900000Y-115050000D02*
X199900000Y-116370000D01*
X199900000Y-116850000D02*
X199900000Y-118170000D01*
X199900000Y-118650000D02*
X199900000Y-119970000D01*
X199900000Y-120450000D02*
X199900000Y-121770000D01*
X199900000Y-122250000D02*
X199900000Y-123570000D01*
X199900000Y-124050000D02*
X199900000Y-125370000D01*
X199900000Y-125850000D02*
X199900000Y-127170000D01*
X199900000Y-127650000D02*
X199900000Y-128970000D01*
X199900000Y-129450000D02*
X199900000Y-130770000D01*
X199900000Y-131250000D02*
X199900000Y-132570000D01*
X199900000Y-133050000D02*
X199900000Y-134370000D01*
X199900000Y-134850000D02*
X199900000Y-136170000D01*
X199900000Y-136650000D02*
X199900000Y-137970000D01*
X199900000Y-138450000D02*
X199900000Y-139770000D01*
X199900000Y-140250000D02*
X199900000Y-141450000D01*
X174400000Y-109950000D02*
G75*
G03*
X172900000Y-111450000I1J-1500001D01*
G01*
X172900000Y-141450000D02*
G75*
G03*
X174400000Y-142950000I1500001J1D01*
G01*
X199900000Y-111450000D02*
G75*
G03*
X198400000Y-109950000I-1500000J0D01*
G01*
X198400000Y-142950000D02*
G75*
G03*
X199900000Y-141450000I0J1500000D01*
G01*
%TO.C,D2*%
X166650000Y-158550000D02*
X166650000Y-178450000D01*
X166650000Y-184450000D02*
X166650000Y-204350000D01*
X180650000Y-176450000D02*
X182650000Y-176450000D01*
X190650000Y-176450000D02*
X192650000Y-176450000D01*
X191650000Y-177450000D02*
X191650000Y-175450000D01*
X206650000Y-158550000D02*
X166650000Y-158550000D01*
X206650000Y-178450000D02*
X206650000Y-158550000D01*
X206650000Y-204350000D02*
X166650000Y-204350000D01*
X206650000Y-204350000D02*
X206650000Y-184450000D01*
%TO.C,D1*%
X126150000Y-158550000D02*
X126150000Y-178450000D01*
X126150000Y-184450000D02*
X126150000Y-204350000D01*
X140150000Y-176450000D02*
X142150000Y-176450000D01*
X150150000Y-176450000D02*
X152150000Y-176450000D01*
X151150000Y-177450000D02*
X151150000Y-175450000D01*
X166150000Y-158550000D02*
X126150000Y-158550000D01*
X166150000Y-178450000D02*
X166150000Y-158550000D01*
X166150000Y-204350000D02*
X126150000Y-204350000D01*
X166150000Y-204350000D02*
X166150000Y-184450000D01*
%TO.C,M10*%
X172900000Y-95450000D02*
X172900000Y-94130000D01*
X172900000Y-93650000D02*
X172900000Y-92330000D01*
X172900000Y-91850000D02*
X172900000Y-90530000D01*
X172900000Y-90050000D02*
X172900000Y-88730000D01*
X172900000Y-88250000D02*
X172900000Y-86930000D01*
X172900000Y-86450000D02*
X172900000Y-85130000D01*
X172900000Y-84650000D02*
X172900000Y-83330000D01*
X172900000Y-82850000D02*
X172900000Y-81530000D01*
X172900000Y-81050000D02*
X172900000Y-79730000D01*
X172900000Y-79250000D02*
X172900000Y-77930000D01*
X172900000Y-77450000D02*
X172900000Y-76130000D01*
X172900000Y-75650000D02*
X172900000Y-74330000D01*
X172900000Y-73850000D02*
X172900000Y-72530000D01*
X172900000Y-72050000D02*
X172900000Y-70730000D01*
X172900000Y-70250000D02*
X172900000Y-68930000D01*
X172900000Y-68450000D02*
X172900000Y-67130000D01*
X172900000Y-66650000D02*
X172900000Y-65450000D01*
X174400000Y-63950000D02*
X175720000Y-63950000D01*
X176200000Y-63950000D02*
X177520000Y-63950000D01*
X178000000Y-63950000D02*
X179320000Y-63950000D01*
X179800000Y-63950000D02*
X181120000Y-63950000D01*
X181600000Y-63950000D02*
X182920000Y-63950000D01*
X183400000Y-63950000D02*
X184720000Y-63950000D01*
X185200000Y-63950000D02*
X186520000Y-63950000D01*
X187000000Y-63950000D02*
X188320000Y-63950000D01*
X188800000Y-63950000D02*
X190120000Y-63950000D01*
X190600000Y-63950000D02*
X191920000Y-63950000D01*
X192400000Y-63950000D02*
X193720000Y-63950000D01*
X194200000Y-63950000D02*
X195520000Y-63950000D01*
X196000000Y-63950000D02*
X197320000Y-63950000D01*
X197800000Y-63950000D02*
X198400000Y-63950000D01*
X198400000Y-96950000D02*
X197080000Y-96950000D01*
X196600000Y-96950000D02*
X195280000Y-96950000D01*
X194800000Y-96950000D02*
X193480000Y-96950000D01*
X193000000Y-96950000D02*
X191680000Y-96950000D01*
X191200000Y-96950000D02*
X189880000Y-96950000D01*
X189400000Y-96950000D02*
X188080000Y-96950000D01*
X187600000Y-96950000D02*
X186280000Y-96950000D01*
X185800000Y-96950000D02*
X184480000Y-96950000D01*
X184000000Y-96950000D02*
X182680000Y-96950000D01*
X182200000Y-96950000D02*
X180880000Y-96950000D01*
X180400000Y-96950000D02*
X179080000Y-96950000D01*
X178600000Y-96950000D02*
X177280000Y-96950000D01*
X176800000Y-96950000D02*
X175480000Y-96950000D01*
X175000000Y-96950000D02*
X174400000Y-96950000D01*
X199900000Y-65450000D02*
X199900000Y-66770000D01*
X199900000Y-67250000D02*
X199900000Y-68570000D01*
X199900000Y-69050000D02*
X199900000Y-70370000D01*
X199900000Y-70850000D02*
X199900000Y-72170000D01*
X199900000Y-72650000D02*
X199900000Y-73970000D01*
X199900000Y-74450000D02*
X199900000Y-75770000D01*
X199900000Y-76250000D02*
X199900000Y-77570000D01*
X199900000Y-78050000D02*
X199900000Y-79370000D01*
X199900000Y-79850000D02*
X199900000Y-81170000D01*
X199900000Y-81650000D02*
X199900000Y-82970000D01*
X199900000Y-83450000D02*
X199900000Y-84770000D01*
X199900000Y-85250000D02*
X199900000Y-86570000D01*
X199900000Y-87050000D02*
X199900000Y-88370000D01*
X199900000Y-88850000D02*
X199900000Y-90170000D01*
X199900000Y-90650000D02*
X199900000Y-91970000D01*
X199900000Y-92450000D02*
X199900000Y-93770000D01*
X199900000Y-94250000D02*
X199900000Y-95450000D01*
X174400000Y-63950000D02*
G75*
G03*
X172900000Y-65450000I1J-1500001D01*
G01*
X172900000Y-95450000D02*
G75*
G03*
X174400000Y-96950000I1500001J1D01*
G01*
X199900000Y-65450000D02*
G75*
G03*
X198400000Y-63950000I-1500000J0D01*
G01*
X198400000Y-96950000D02*
G75*
G03*
X199900000Y-95450000I0J1500000D01*
G01*
%TO.C,M1*%
X132900000Y-141450000D02*
X132900000Y-140130000D01*
X132900000Y-139650000D02*
X132900000Y-138330000D01*
X132900000Y-137850000D02*
X132900000Y-136530000D01*
X132900000Y-136050000D02*
X132900000Y-134730000D01*
X132900000Y-134250000D02*
X132900000Y-132930000D01*
X132900000Y-132450000D02*
X132900000Y-131130000D01*
X132900000Y-130650000D02*
X132900000Y-129330000D01*
X132900000Y-128850000D02*
X132900000Y-127530000D01*
X132900000Y-127050000D02*
X132900000Y-125730000D01*
X132900000Y-125250000D02*
X132900000Y-123930000D01*
X132900000Y-123450000D02*
X132900000Y-122130000D01*
X132900000Y-121650000D02*
X132900000Y-120330000D01*
X132900000Y-119850000D02*
X132900000Y-118530000D01*
X132900000Y-118050000D02*
X132900000Y-116730000D01*
X132900000Y-116250000D02*
X132900000Y-114930000D01*
X132900000Y-114450000D02*
X132900000Y-113130000D01*
X132900000Y-112650000D02*
X132900000Y-111450000D01*
X134400000Y-109950000D02*
X135720000Y-109950000D01*
X136200000Y-109950000D02*
X137520000Y-109950000D01*
X138000000Y-109950000D02*
X139320000Y-109950000D01*
X139800000Y-109950000D02*
X141120000Y-109950000D01*
X141600000Y-109950000D02*
X142920000Y-109950000D01*
X143400000Y-109950000D02*
X144720000Y-109950000D01*
X145200000Y-109950000D02*
X146520000Y-109950000D01*
X147000000Y-109950000D02*
X148320000Y-109950000D01*
X148800000Y-109950000D02*
X150120000Y-109950000D01*
X150600000Y-109950000D02*
X151920000Y-109950000D01*
X152400000Y-109950000D02*
X153720000Y-109950000D01*
X154200000Y-109950000D02*
X155520000Y-109950000D01*
X156000000Y-109950000D02*
X157320000Y-109950000D01*
X157800000Y-109950000D02*
X158400000Y-109950000D01*
X158400000Y-142950000D02*
X157080000Y-142950000D01*
X156600000Y-142950000D02*
X155280000Y-142950000D01*
X154800000Y-142950000D02*
X153480000Y-142950000D01*
X153000000Y-142950000D02*
X151680000Y-142950000D01*
X151200000Y-142950000D02*
X149880000Y-142950000D01*
X149400000Y-142950000D02*
X148080000Y-142950000D01*
X147600000Y-142950000D02*
X146280000Y-142950000D01*
X145800000Y-142950000D02*
X144480000Y-142950000D01*
X144000000Y-142950000D02*
X142680000Y-142950000D01*
X142200000Y-142950000D02*
X140880000Y-142950000D01*
X140400000Y-142950000D02*
X139080000Y-142950000D01*
X138600000Y-142950000D02*
X137280000Y-142950000D01*
X136800000Y-142950000D02*
X135480000Y-142950000D01*
X135000000Y-142950000D02*
X134400000Y-142950000D01*
X159900000Y-111450000D02*
X159900000Y-112770000D01*
X159900000Y-113250000D02*
X159900000Y-114570000D01*
X159900000Y-115050000D02*
X159900000Y-116370000D01*
X159900000Y-116850000D02*
X159900000Y-118170000D01*
X159900000Y-118650000D02*
X159900000Y-119970000D01*
X159900000Y-120450000D02*
X159900000Y-121770000D01*
X159900000Y-122250000D02*
X159900000Y-123570000D01*
X159900000Y-124050000D02*
X159900000Y-125370000D01*
X159900000Y-125850000D02*
X159900000Y-127170000D01*
X159900000Y-127650000D02*
X159900000Y-128970000D01*
X159900000Y-129450000D02*
X159900000Y-130770000D01*
X159900000Y-131250000D02*
X159900000Y-132570000D01*
X159900000Y-133050000D02*
X159900000Y-134370000D01*
X159900000Y-134850000D02*
X159900000Y-136170000D01*
X159900000Y-136650000D02*
X159900000Y-137970000D01*
X159900000Y-138450000D02*
X159900000Y-139770000D01*
X159900000Y-140250000D02*
X159900000Y-141450000D01*
X134400000Y-109950000D02*
G75*
G03*
X132900000Y-111450000I1J-1500001D01*
G01*
X132900000Y-141450000D02*
G75*
G03*
X134400000Y-142950000I1500001J1D01*
G01*
X159900000Y-111450000D02*
G75*
G03*
X158400000Y-109950000I-1500000J0D01*
G01*
X158400000Y-142950000D02*
G75*
G03*
X159900000Y-141450000I0J1500000D01*
G01*
%TO.C,M6*%
X132900000Y-95450000D02*
X132900000Y-94130000D01*
X132900000Y-93650000D02*
X132900000Y-92330000D01*
X132900000Y-91850000D02*
X132900000Y-90530000D01*
X132900000Y-90050000D02*
X132900000Y-88730000D01*
X132900000Y-88250000D02*
X132900000Y-86930000D01*
X132900000Y-86450000D02*
X132900000Y-85130000D01*
X132900000Y-84650000D02*
X132900000Y-83330000D01*
X132900000Y-82850000D02*
X132900000Y-81530000D01*
X132900000Y-81050000D02*
X132900000Y-79730000D01*
X132900000Y-79250000D02*
X132900000Y-77930000D01*
X132900000Y-77450000D02*
X132900000Y-76130000D01*
X132900000Y-75650000D02*
X132900000Y-74330000D01*
X132900000Y-73850000D02*
X132900000Y-72530000D01*
X132900000Y-72050000D02*
X132900000Y-70730000D01*
X132900000Y-70250000D02*
X132900000Y-68930000D01*
X132900000Y-68450000D02*
X132900000Y-67130000D01*
X132900000Y-66650000D02*
X132900000Y-65450000D01*
X134400000Y-63950000D02*
X135720000Y-63950000D01*
X136200000Y-63950000D02*
X137520000Y-63950000D01*
X138000000Y-63950000D02*
X139320000Y-63950000D01*
X139800000Y-63950000D02*
X141120000Y-63950000D01*
X141600000Y-63950000D02*
X142920000Y-63950000D01*
X143400000Y-63950000D02*
X144720000Y-63950000D01*
X145200000Y-63950000D02*
X146520000Y-63950000D01*
X147000000Y-63950000D02*
X148320000Y-63950000D01*
X148800000Y-63950000D02*
X150120000Y-63950000D01*
X150600000Y-63950000D02*
X151920000Y-63950000D01*
X152400000Y-63950000D02*
X153720000Y-63950000D01*
X154200000Y-63950000D02*
X155520000Y-63950000D01*
X156000000Y-63950000D02*
X157320000Y-63950000D01*
X157800000Y-63950000D02*
X158400000Y-63950000D01*
X158400000Y-96950000D02*
X157080000Y-96950000D01*
X156600000Y-96950000D02*
X155280000Y-96950000D01*
X154800000Y-96950000D02*
X153480000Y-96950000D01*
X153000000Y-96950000D02*
X151680000Y-96950000D01*
X151200000Y-96950000D02*
X149880000Y-96950000D01*
X149400000Y-96950000D02*
X148080000Y-96950000D01*
X147600000Y-96950000D02*
X146280000Y-96950000D01*
X145800000Y-96950000D02*
X144480000Y-96950000D01*
X144000000Y-96950000D02*
X142680000Y-96950000D01*
X142200000Y-96950000D02*
X140880000Y-96950000D01*
X140400000Y-96950000D02*
X139080000Y-96950000D01*
X138600000Y-96950000D02*
X137280000Y-96950000D01*
X136800000Y-96950000D02*
X135480000Y-96950000D01*
X135000000Y-96950000D02*
X134400000Y-96950000D01*
X159900000Y-65450000D02*
X159900000Y-66770000D01*
X159900000Y-67250000D02*
X159900000Y-68570000D01*
X159900000Y-69050000D02*
X159900000Y-70370000D01*
X159900000Y-70850000D02*
X159900000Y-72170000D01*
X159900000Y-72650000D02*
X159900000Y-73970000D01*
X159900000Y-74450000D02*
X159900000Y-75770000D01*
X159900000Y-76250000D02*
X159900000Y-77570000D01*
X159900000Y-78050000D02*
X159900000Y-79370000D01*
X159900000Y-79850000D02*
X159900000Y-81170000D01*
X159900000Y-81650000D02*
X159900000Y-82970000D01*
X159900000Y-83450000D02*
X159900000Y-84770000D01*
X159900000Y-85250000D02*
X159900000Y-86570000D01*
X159900000Y-87050000D02*
X159900000Y-88370000D01*
X159900000Y-88850000D02*
X159900000Y-90170000D01*
X159900000Y-90650000D02*
X159900000Y-91970000D01*
X159900000Y-92450000D02*
X159900000Y-93770000D01*
X159900000Y-94250000D02*
X159900000Y-95450000D01*
X134400000Y-63950000D02*
G75*
G03*
X132900000Y-65450000I1J-1500001D01*
G01*
X132900000Y-95450000D02*
G75*
G03*
X134400000Y-96950000I1500001J1D01*
G01*
X159900000Y-65450000D02*
G75*
G03*
X158400000Y-63950000I-1500000J0D01*
G01*
X158400000Y-96950000D02*
G75*
G03*
X159900000Y-95450000I0J1500000D01*
G01*
%TD*%
M02*
