%TF.GenerationSoftware,KiCad,Pcbnew,7.0.11+dfsg-1build4*%
%TF.CreationDate,2025-08-11T18:09:29+02:00*%
%TF.ProjectId,pendulum,70656e64-756c-4756-9d2e-6b696361645f,rev?*%
%TF.SameCoordinates,Original*%
%TF.FileFunction,Copper,L2,Bot*%
%TF.FilePolarity,Positive*%
%FSLAX46Y46*%
G04 Gerber Fmt 4.6, Leading zero omitted, Abs format (unit mm)*
G04 Created by KiCad (PCBNEW 7.0.11+dfsg-1build4) date 2025-08-11 18:09:29*
%MOMM*%
%LPD*%
G01*
G04 APERTURE LIST*
G04 Aperture macros list*
%AMRoundRect*
0 Rectangle with rounded corners*
0 $1 Rounding radius*
0 $2 $3 $4 $5 $6 $7 $8 $9 X,Y pos of 4 corners*
0 Add a 4 corners polygon primitive as box body*
4,1,4,$2,$3,$4,$5,$6,$7,$8,$9,$2,$3,0*
0 Add four circle primitives for the rounded corners*
1,1,$1+$1,$2,$3*
1,1,$1+$1,$4,$5*
1,1,$1+$1,$6,$7*
1,1,$1+$1,$8,$9*
0 Add four rect primitives between the rounded corners*
20,1,$1+$1,$2,$3,$4,$5,0*
20,1,$1+$1,$4,$5,$6,$7,0*
20,1,$1+$1,$6,$7,$8,$9,0*
20,1,$1+$1,$8,$9,$2,$3,0*%
G04 Aperture macros list end*
%TA.AperFunction,ComponentPad*%
%ADD10C,6.000000*%
%TD*%
%TA.AperFunction,SMDPad,CuDef*%
%ADD11C,1.500000*%
%TD*%
%TA.AperFunction,SMDPad,CuDef*%
%ADD12RoundRect,0.250000X0.412500X0.650000X-0.412500X0.650000X-0.412500X-0.650000X0.412500X-0.650000X0*%
%TD*%
%TA.AperFunction,SMDPad,CuDef*%
%ADD13RoundRect,0.250000X-0.412500X-0.650000X0.412500X-0.650000X0.412500X0.650000X-0.412500X0.650000X0*%
%TD*%
%TA.AperFunction,Conductor*%
%ADD14C,1.000000*%
%TD*%
G04 APERTURE END LIST*
D10*
%TO.P,D2,1,A*%
%TO.N,Net-(D1-K)*%
X191650000Y-181450000D03*
%TO.P,D2,2,K*%
%TO.N,Net-(D1-A)*%
X181650000Y-181450000D03*
%TD*%
%TO.P,D1,1,A*%
%TO.N,Net-(D1-A)*%
X151150000Y-181450000D03*
%TO.P,D1,2,K*%
%TO.N,Net-(D1-K)*%
X141150000Y-181450000D03*
%TD*%
D11*
%TO.P,L2,1,1*%
%TO.N,Net-(D1-K)*%
X163900000Y-160700000D03*
%TO.P,L2,2,2*%
%TO.N,Net-(C1-Pad2)*%
X128400000Y-160700000D03*
%TD*%
D12*
%TO.P,C2,1*%
%TO.N,Net-(D1-A)*%
X147712500Y-174450000D03*
%TO.P,C2,2*%
%TO.N,Net-(C1-Pad2)*%
X144587500Y-174450000D03*
%TD*%
%TO.P,C1,1*%
%TO.N,Net-(D1-A)*%
X147712500Y-188450000D03*
%TO.P,C1,2*%
%TO.N,Net-(C1-Pad2)*%
X144587500Y-188450000D03*
%TD*%
D13*
%TO.P,C4,1*%
%TO.N,Net-(D1-A)*%
X185087500Y-174450000D03*
%TO.P,C4,2*%
%TO.N,Net-(C1-Pad2)*%
X188212500Y-174450000D03*
%TD*%
D11*
%TO.P,L1,1,1*%
%TO.N,Net-(C1-Pad2)*%
X204400000Y-160700000D03*
%TO.P,L1,2,2*%
%TO.N,Net-(D1-K)*%
X168900000Y-160700000D03*
%TD*%
D13*
%TO.P,C3,1*%
%TO.N,Net-(D1-A)*%
X185087500Y-188450000D03*
%TO.P,C3,2*%
%TO.N,Net-(C1-Pad2)*%
X188212500Y-188450000D03*
%TD*%
D14*
%TO.N,Net-(D1-A)*%
X159650000Y-172950000D02*
X173100000Y-172950000D01*
X147712500Y-184887500D02*
X151150000Y-181450000D01*
X181650000Y-181450000D02*
X183725000Y-183525000D01*
X147712500Y-178012500D02*
X151150000Y-181450000D01*
X151150000Y-181450000D02*
X159650000Y-172950000D01*
X185087500Y-184887500D02*
X183725000Y-183525000D01*
X185087500Y-178012500D02*
X181650000Y-181450000D01*
X147712500Y-188450000D02*
X147712500Y-184887500D01*
X185087500Y-174450000D02*
X185087500Y-178012500D01*
X173100000Y-172950000D02*
X181650000Y-181500000D01*
X185087500Y-188450000D02*
X185087500Y-184887500D01*
X147712500Y-174450000D02*
X147712500Y-178012500D01*
%TO.N,Net-(D1-K)*%
X143900000Y-181450000D02*
X146150000Y-179200000D01*
X141150000Y-181450000D02*
X143900000Y-181450000D01*
X186650000Y-177950000D02*
X186650000Y-170450000D01*
X146150000Y-179200000D02*
X146150000Y-170700000D01*
X168900000Y-160700000D02*
X163900000Y-160700000D01*
X146150000Y-170700000D02*
X156150000Y-160700000D01*
X186650000Y-170450000D02*
X176900000Y-160700000D01*
X156150000Y-160700000D02*
X163900000Y-160700000D01*
X176900000Y-160700000D02*
X168900000Y-160700000D01*
X190150000Y-181450000D02*
X186650000Y-177950000D01*
%TO.N,Net-(C1-Pad2)*%
X197400000Y-174450000D02*
X197400000Y-186200000D01*
X128400000Y-160700000D02*
X130900000Y-163200000D01*
X145800000Y-192950000D02*
X186850000Y-192950000D01*
X197400000Y-186200000D02*
X195150000Y-188450000D01*
X144587500Y-174450000D02*
X135900000Y-174450000D01*
X188212500Y-188450000D02*
X188212500Y-191587500D01*
X197400000Y-174450000D02*
X188212500Y-174450000D01*
X135900000Y-185950000D02*
X138400000Y-188450000D01*
X130900000Y-163200000D02*
X130900000Y-169450000D01*
X144587500Y-191737500D02*
X145800000Y-192950000D01*
X201900000Y-169950000D02*
X197400000Y-174450000D01*
X135900000Y-174450000D02*
X135900000Y-185950000D01*
X188212500Y-191587500D02*
X186850000Y-192950000D01*
X201900000Y-163200000D02*
X201900000Y-169950000D01*
X130900000Y-169450000D02*
X135900000Y-174450000D01*
X195150000Y-188450000D02*
X188212500Y-188450000D01*
X204400000Y-160700000D02*
X201900000Y-163200000D01*
X138400000Y-188450000D02*
X144587500Y-188450000D01*
X144587500Y-188450000D02*
X144587500Y-191737500D01*
%TD*%
M02*
