%TF.GenerationSoftware,KiCad,Pcbnew,7.0.11+dfsg-1build4*%
%TF.CreationDate,2025-08-11T18:09:29+02:00*%
%TF.ProjectId,pendulum,70656e64-756c-4756-9d2e-6b696361645f,rev?*%
%TF.SameCoordinates,Original*%
%TF.FileFunction,Soldermask,Bot*%
%TF.FilePolarity,Negative*%
%FSLAX46Y46*%
G04 Gerber Fmt 4.6, Leading zero omitted, Abs format (unit mm)*
G04 Created by KiCad (PCBNEW 7.0.11+dfsg-1build4) date 2025-08-11 18:09:29*
%MOMM*%
%LPD*%
G01*
G04 APERTURE LIST*
G04 Aperture macros list*
%AMRoundRect*
0 Rectangle with rounded corners*
0 $1 Rounding radius*
0 $2 $3 $4 $5 $6 $7 $8 $9 X,Y pos of 4 corners*
0 Add a 4 corners polygon primitive as box body*
4,1,4,$2,$3,$4,$5,$6,$7,$8,$9,$2,$3,0*
0 Add four circle primitives for the rounded corners*
1,1,$1+$1,$2,$3*
1,1,$1+$1,$4,$5*
1,1,$1+$1,$6,$7*
1,1,$1+$1,$8,$9*
0 Add four rect primitives between the rounded corners*
20,1,$1+$1,$2,$3,$4,$5,0*
20,1,$1+$1,$4,$5,$6,$7,0*
20,1,$1+$1,$6,$7,$8,$9,0*
20,1,$1+$1,$8,$9,$2,$3,0*%
G04 Aperture macros list end*
%ADD10C,1.000000*%
%ADD11C,0.500000*%
%ADD12C,6.000000*%
%ADD13C,1.500000*%
%ADD14RoundRect,0.250000X0.412500X0.650000X-0.412500X0.650000X-0.412500X-0.650000X0.412500X-0.650000X0*%
%ADD15RoundRect,0.250000X-0.412500X-0.650000X0.412500X-0.650000X0.412500X0.650000X-0.412500X0.650000X0*%
G04 APERTURE END LIST*
D10*
%TO.C,M5*%
X175650000Y-112200000D03*
X175650000Y-140700000D03*
X197150000Y-112200000D03*
X197150000Y-140700000D03*
%TD*%
D11*
%TO.C,REF\u002A\u002A*%
X187250000Y-150700000D03*
X187250000Y-148200000D03*
X186400000Y-150700000D03*
X186400000Y-148200000D03*
X185550000Y-150700000D03*
X185550000Y-148200000D03*
%TD*%
D12*
%TO.C,D2*%
X191650000Y-181450000D03*
X181650000Y-181450000D03*
%TD*%
D11*
%TO.C,REF\u002A\u002A*%
X260400000Y-204700000D03*
X260400000Y-207200000D03*
X261250000Y-204700000D03*
X261250000Y-207200000D03*
X262100000Y-204700000D03*
X262100000Y-207200000D03*
%TD*%
%TO.C,REF\u002A\u002A*%
X123250000Y-194300000D03*
X125750000Y-194300000D03*
X123250000Y-193450000D03*
X125750000Y-193450000D03*
X123250000Y-192600000D03*
X125750000Y-192600000D03*
%TD*%
%TO.C,REF\u002A\u002A*%
X165150000Y-127300000D03*
X167650000Y-127300000D03*
X165150000Y-126450000D03*
X167650000Y-126450000D03*
X165150000Y-125600000D03*
X167650000Y-125600000D03*
%TD*%
D10*
%TO.C,M4*%
X220500000Y-137700000D03*
X220500000Y-166200000D03*
X242000000Y-137700000D03*
X242000000Y-166200000D03*
%TD*%
D11*
%TO.C,REF\u002A\u002A*%
X245000000Y-116800000D03*
X247500000Y-116800000D03*
X245000000Y-115950000D03*
X247500000Y-115950000D03*
X245000000Y-115100000D03*
X247500000Y-115100000D03*
%TD*%
%TO.C,REF\u002A\u002A*%
X165550000Y-204700000D03*
X165550000Y-207200000D03*
X166400000Y-204700000D03*
X166400000Y-207200000D03*
X167250000Y-204700000D03*
X167250000Y-207200000D03*
%TD*%
D12*
%TO.C,D1*%
X151150000Y-181450000D03*
X141150000Y-181450000D03*
%TD*%
D11*
%TO.C,REF\u002A\u002A*%
X260400000Y-132700000D03*
X260400000Y-135200000D03*
X261250000Y-132700000D03*
X261250000Y-135200000D03*
X262100000Y-132700000D03*
X262100000Y-135200000D03*
%TD*%
%TO.C,REF\u002A\u002A*%
X123250000Y-170300000D03*
X125750000Y-170300000D03*
X123250000Y-169450000D03*
X125750000Y-169450000D03*
X123250000Y-168600000D03*
X125750000Y-168600000D03*
%TD*%
%TO.C,REF\u002A\u002A*%
X230400000Y-96700000D03*
X230400000Y-99200000D03*
X231250000Y-96700000D03*
X231250000Y-99200000D03*
X232100000Y-96700000D03*
X232100000Y-99200000D03*
%TD*%
%TO.C,REF\u002A\u002A*%
X245000000Y-80800000D03*
X247500000Y-80800000D03*
X245000000Y-79950000D03*
X247500000Y-79950000D03*
X245000000Y-79100000D03*
X247500000Y-79100000D03*
%TD*%
%TO.C,REF\u002A\u002A*%
X275000000Y-152800000D03*
X277500000Y-152800000D03*
X275000000Y-151950000D03*
X277500000Y-151950000D03*
X275000000Y-151100000D03*
X277500000Y-151100000D03*
%TD*%
%TO.C,REF\u002A\u002A*%
X275000000Y-188800000D03*
X277500000Y-188800000D03*
X275000000Y-187950000D03*
X277500000Y-187950000D03*
X275000000Y-187100000D03*
X277500000Y-187100000D03*
%TD*%
%TO.C,REF\u002A\u002A*%
X230400000Y-168700000D03*
X230400000Y-171200000D03*
X231250000Y-168700000D03*
X231250000Y-171200000D03*
X232100000Y-168700000D03*
X232100000Y-171200000D03*
%TD*%
%TO.C,REF\u002A\u002A*%
X147250000Y-58700000D03*
X147250000Y-56200000D03*
X146400000Y-58700000D03*
X146400000Y-56200000D03*
X145550000Y-58700000D03*
X145550000Y-56200000D03*
%TD*%
%TO.C,REF\u002A\u002A*%
X209550000Y-192600000D03*
X207050000Y-192600000D03*
X209550000Y-193450000D03*
X207050000Y-193450000D03*
X209550000Y-194300000D03*
X207050000Y-194300000D03*
%TD*%
D10*
%TO.C,M10*%
X175650000Y-66200000D03*
X175650000Y-94700000D03*
X197150000Y-66200000D03*
X197150000Y-94700000D03*
%TD*%
%TO.C,M1*%
X135650000Y-112200000D03*
X135650000Y-140700000D03*
X157150000Y-112200000D03*
X157150000Y-140700000D03*
%TD*%
D11*
%TO.C,REF\u002A\u002A*%
X147250000Y-104700000D03*
X147250000Y-102200000D03*
X146400000Y-104700000D03*
X146400000Y-102200000D03*
X145550000Y-104700000D03*
X145550000Y-102200000D03*
%TD*%
%TO.C,REF\u002A\u002A*%
X215000000Y-80800000D03*
X217500000Y-80800000D03*
X215000000Y-79950000D03*
X217500000Y-79950000D03*
X215000000Y-79100000D03*
X217500000Y-79100000D03*
%TD*%
D10*
%TO.C,M2*%
X220500000Y-65700000D03*
X220500000Y-94200000D03*
X242000000Y-65700000D03*
X242000000Y-94200000D03*
%TD*%
D11*
%TO.C,REF\u002A\u002A*%
X230400000Y-132700000D03*
X230400000Y-135200000D03*
X231250000Y-132700000D03*
X231250000Y-135200000D03*
X232100000Y-132700000D03*
X232100000Y-135200000D03*
%TD*%
D10*
%TO.C,M8*%
X250500000Y-173700000D03*
X250500000Y-202200000D03*
X272000000Y-173700000D03*
X272000000Y-202200000D03*
%TD*%
%TO.C,M9*%
X220500000Y-173700000D03*
X220500000Y-202200000D03*
X242000000Y-173700000D03*
X242000000Y-202200000D03*
%TD*%
D11*
%TO.C,REF\u002A\u002A*%
X209550000Y-168600000D03*
X207050000Y-168600000D03*
X209550000Y-169450000D03*
X207050000Y-169450000D03*
X209550000Y-170300000D03*
X207050000Y-170300000D03*
%TD*%
%TO.C,REF\u002A\u002A*%
X125150000Y-81300000D03*
X127650000Y-81300000D03*
X125150000Y-80450000D03*
X127650000Y-80450000D03*
X125150000Y-79600000D03*
X127650000Y-79600000D03*
%TD*%
%TO.C,REF\u002A\u002A*%
X230400000Y-204700000D03*
X230400000Y-207200000D03*
X231250000Y-204700000D03*
X231250000Y-207200000D03*
X232100000Y-204700000D03*
X232100000Y-207200000D03*
%TD*%
%TO.C,REF\u002A\u002A*%
X165550000Y-155700000D03*
X165550000Y-158200000D03*
X166400000Y-155700000D03*
X166400000Y-158200000D03*
X167250000Y-155700000D03*
X167250000Y-158200000D03*
%TD*%
%TO.C,REF\u002A\u002A*%
X205150000Y-127300000D03*
X207650000Y-127300000D03*
X205150000Y-126450000D03*
X207650000Y-126450000D03*
X205150000Y-125600000D03*
X207650000Y-125600000D03*
%TD*%
D10*
%TO.C,M3*%
X250500000Y-137700000D03*
X250500000Y-166200000D03*
X272000000Y-137700000D03*
X272000000Y-166200000D03*
%TD*%
D11*
%TO.C,REF\u002A\u002A*%
X230400000Y-60700000D03*
X230400000Y-63200000D03*
X231250000Y-60700000D03*
X231250000Y-63200000D03*
X232100000Y-60700000D03*
X232100000Y-63200000D03*
%TD*%
%TO.C,REF\u002A\u002A*%
X260400000Y-168700000D03*
X260400000Y-171200000D03*
X261250000Y-168700000D03*
X261250000Y-171200000D03*
X262100000Y-168700000D03*
X262100000Y-171200000D03*
%TD*%
%TO.C,REF\u002A\u002A*%
X187250000Y-104700000D03*
X187250000Y-102200000D03*
X186400000Y-104700000D03*
X186400000Y-102200000D03*
X185550000Y-104700000D03*
X185550000Y-102200000D03*
%TD*%
%TO.C,REF\u002A\u002A*%
X215000000Y-152800000D03*
X217500000Y-152800000D03*
X215000000Y-151950000D03*
X217500000Y-151950000D03*
X215000000Y-151100000D03*
X217500000Y-151100000D03*
%TD*%
%TO.C,REF\u002A\u002A*%
X245000000Y-152800000D03*
X247500000Y-152800000D03*
X245000000Y-151950000D03*
X247500000Y-151950000D03*
X245000000Y-151100000D03*
X247500000Y-151100000D03*
%TD*%
D10*
%TO.C,M6*%
X135650000Y-66200000D03*
X135650000Y-94700000D03*
X157150000Y-66200000D03*
X157150000Y-94700000D03*
%TD*%
D11*
%TO.C,REF\u002A\u002A*%
X245000000Y-188800000D03*
X247500000Y-188800000D03*
X245000000Y-187950000D03*
X247500000Y-187950000D03*
X245000000Y-187100000D03*
X247500000Y-187100000D03*
%TD*%
%TO.C,REF\u002A\u002A*%
X215000000Y-188800000D03*
X217500000Y-188800000D03*
X215000000Y-187950000D03*
X217500000Y-187950000D03*
X215000000Y-187100000D03*
X217500000Y-187100000D03*
%TD*%
%TO.C,REF\u002A\u002A*%
X165150000Y-81300000D03*
X167650000Y-81300000D03*
X165150000Y-80450000D03*
X167650000Y-80450000D03*
X165150000Y-79600000D03*
X167650000Y-79600000D03*
%TD*%
%TO.C,REF\u002A\u002A*%
X205150000Y-81300000D03*
X207650000Y-81300000D03*
X205150000Y-80450000D03*
X207650000Y-80450000D03*
X205150000Y-79600000D03*
X207650000Y-79600000D03*
%TD*%
%TO.C,REF\u002A\u002A*%
X147250000Y-150700000D03*
X147250000Y-148200000D03*
X146400000Y-150700000D03*
X146400000Y-148200000D03*
X145550000Y-150700000D03*
X145550000Y-148200000D03*
%TD*%
%TO.C,REF\u002A\u002A*%
X215000000Y-116800000D03*
X217500000Y-116800000D03*
X215000000Y-115950000D03*
X217500000Y-115950000D03*
X215000000Y-115100000D03*
X217500000Y-115100000D03*
%TD*%
D10*
%TO.C,M7*%
X220500000Y-101700000D03*
X220500000Y-130200000D03*
X242000000Y-101700000D03*
X242000000Y-130200000D03*
%TD*%
D11*
%TO.C,REF\u002A\u002A*%
X125150000Y-127300000D03*
X127650000Y-127300000D03*
X125150000Y-126450000D03*
X127650000Y-126450000D03*
X125150000Y-125600000D03*
X127650000Y-125600000D03*
%TD*%
%TO.C,REF\u002A\u002A*%
X187250000Y-58700000D03*
X187250000Y-56200000D03*
X186400000Y-58700000D03*
X186400000Y-56200000D03*
X185550000Y-58700000D03*
X185550000Y-56200000D03*
%TD*%
D10*
%TO.C,L2*%
X156900000Y-167200000D03*
X156900000Y-195700000D03*
X135400000Y-167200000D03*
X135400000Y-195700000D03*
D13*
X163900000Y-160700000D03*
X128400000Y-160700000D03*
%TD*%
D14*
%TO.C,C2*%
X147712500Y-174450000D03*
X144587500Y-174450000D03*
%TD*%
%TO.C,C1*%
X147712500Y-188450000D03*
X144587500Y-188450000D03*
%TD*%
D15*
%TO.C,C4*%
X185087500Y-174450000D03*
X188212500Y-174450000D03*
%TD*%
D10*
%TO.C,L1*%
X197400000Y-167200000D03*
X197400000Y-195700000D03*
X175900000Y-167200000D03*
X175900000Y-195700000D03*
D13*
X204400000Y-160700000D03*
X168900000Y-160700000D03*
%TD*%
D15*
%TO.C,C3*%
X185087500Y-188450000D03*
X188212500Y-188450000D03*
%TD*%
M02*
